<svg width="24" height="24" viewBox="0 0 24 24" fill="none" xmlns="http://www.w3.org/2000/svg">
    <rect x="1" y="1" width="22" height="22" rx="11" fill="#AC5F03"/>
    <rect x="1" y="1" width="22" height="22" rx="11" stroke="url(#paint0_linear_623_4844)" stroke-width="2"/>
    <mask id="mask0_623_4844" style="mask-type:alpha" maskUnits="userSpaceOnUse" x="6" y="6" width="12" height="12">
        <path d="M12.375 13.96H12.7C13.025 13.96 13.295 13.67 13.295 13.32C13.295 12.885 13.14 12.8 12.885 12.71L12.38 12.535V13.96H12.375Z"
              fill="black"/>
        <path d="M11.985 6.95C9.22503 6.96 6.99003 9.205 7.00003 11.965C7.01003 14.725 9.25503 16.96 12.015 16.95C14.775 16.94 17.01 14.695 17 11.935C16.99 9.175 14.745 6.945 11.985 6.95ZM13.13 12C13.52 12.135 14.045 12.425 14.045 13.32C14.045 14.09 13.44 14.71 12.7 14.71H12.375V15C12.375 15.205 12.205 15.375 12 15.375C11.795 15.375 11.625 15.205 11.625 15V14.71H11.445C10.625 14.71 9.96003 14.02 9.96003 13.17C9.96003 12.965 10.13 12.795 10.335 12.795C10.54 12.795 10.71 12.965 10.71 13.17C10.71 13.605 11.04 13.96 11.445 13.96H11.625V12.27L10.87 12C10.48 11.865 9.95503 11.575 9.95503 10.68C9.95503 9.91 10.56 9.29 11.3 9.29H11.625V9C11.625 8.795 11.795 8.625 12 8.625C12.205 8.625 12.375 8.795 12.375 9V9.29H12.555C13.375 9.29 14.04 9.98 14.04 10.83C14.04 11.035 13.87 11.205 13.665 11.205C13.46 11.205 13.29 11.035 13.29 10.83C13.29 10.395 12.96 10.04 12.555 10.04H12.375V11.73L13.13 12Z"
              fill="#292D32"/>
        <path d="M10.71 10.685C10.71 11.12 10.865 11.205 11.12 11.295L11.625 11.47V10.04H11.3C10.975 10.04 10.71 10.33 10.71 10.685Z"
              fill="#292D32"/>
    </mask>
    <g mask="url(#mask0_623_4844)">
        <rect x="6" y="6" width="12" height="12" fill="url(#paint1_linear_623_4844)"/>
    </g>
    <defs>
        <linearGradient id="paint0_linear_623_4844" x1="0" y1="0" x2="24" y2="24" gradientUnits="userSpaceOnUse">
            <stop stop-color="#FFDD49"/>
            <stop offset="1" stop-color="#FF9623"/>
        </linearGradient>
        <linearGradient id="paint1_linear_623_4844" x1="6" y1="6" x2="18" y2="18" gradientUnits="userSpaceOnUse">
            <stop stop-color="#FFEA8D"/>
            <stop offset="1" stop-color="#FF992A"/>
        </linearGradient>
    </defs>
</svg>