<svg width="34" height="40" viewBox="0 0 34 40" fill="none" xmlns="http://www.w3.org/2000/svg">
<g filter="url(#filter0_dddd_312_1407)">
<rect x="5" y="1" width="24" height="24" rx="12" fill="#AC5F03"/>
<rect x="6" y="2" width="22" height="22" rx="11" stroke="url(#paint0_linear_312_1407)" stroke-width="2"/>
<mask id="mask0_312_1407" style="mask-type:alpha" maskUnits="userSpaceOnUse" x="11" y="7" width="12" height="12">
<path d="M17.375 14.96H17.7C18.025 14.96 18.295 14.67 18.295 14.32C18.295 13.885 18.14 13.8 17.885 13.71L17.38 13.535V14.96H17.375Z" fill="black"/>
<path d="M16.985 7.94999C14.225 7.95999 11.99 10.205 12 12.965C12.01 15.725 14.255 17.96 17.015 17.95C19.775 17.94 22.01 15.695 22 12.935C21.99 10.175 19.745 7.94499 16.985 7.94999ZM18.13 13C18.52 13.135 19.045 13.425 19.045 14.32C19.045 15.09 18.44 15.71 17.7 15.71H17.375V16C17.375 16.205 17.205 16.375 17 16.375C16.795 16.375 16.625 16.205 16.625 16V15.71H16.445C15.625 15.71 14.96 15.02 14.96 14.17C14.96 13.965 15.13 13.795 15.335 13.795C15.54 13.795 15.71 13.965 15.71 14.17C15.71 14.605 16.04 14.96 16.445 14.96H16.625V13.27L15.87 13C15.48 12.865 14.955 12.575 14.955 11.68C14.955 10.91 15.56 10.29 16.3 10.29H16.625V9.99999C16.625 9.79499 16.795 9.62499 17 9.62499C17.205 9.62499 17.375 9.79499 17.375 9.99999V10.29H17.555C18.375 10.29 19.04 10.98 19.04 11.83C19.04 12.035 18.87 12.205 18.665 12.205C18.46 12.205 18.29 12.035 18.29 11.83C18.29 11.395 17.96 11.04 17.555 11.04H17.375V12.73L18.13 13Z" fill="#292D32"/>
<path d="M15.71 11.685C15.71 12.12 15.865 12.205 16.12 12.295L16.625 12.47V11.04H16.3C15.975 11.04 15.71 11.33 15.71 11.685Z" fill="#292D32"/>
</mask>
<g mask="url(#mask0_312_1407)">
<rect x="11" y="7" width="12" height="12" fill="url(#paint1_linear_312_1407)"/>
</g>
</g>
<defs>
<filter id="filter0_dddd_312_1407" x="0.8" y="0.4" width="32.4" height="39.6" filterUnits="userSpaceOnUse" color-interpolation-filters="sRGB">
<feFlood flood-opacity="0" result="BackgroundImageFix"/>
<feColorMatrix in="SourceAlpha" type="matrix" values="0 0 0 0 0 0 0 0 0 0 0 0 0 0 0 0 0 0 127 0" result="hardAlpha"/>
<feOffset dy="0.6"/>
<feGaussianBlur stdDeviation="0.6"/>
<feColorMatrix type="matrix" values="0 0 0 0 0 0 0 0 0 0 0 0 0 0 0 0 0 0 0.1 0"/>
<feBlend mode="normal" in2="BackgroundImageFix" result="effect1_dropShadow_312_1407"/>
<feColorMatrix in="SourceAlpha" type="matrix" values="0 0 0 0 0 0 0 0 0 0 0 0 0 0 0 0 0 0 127 0" result="hardAlpha"/>
<feOffset dy="2.4"/>
<feGaussianBlur stdDeviation="1.2"/>
<feColorMatrix type="matrix" values="0 0 0 0 0 0 0 0 0 0 0 0 0 0 0 0 0 0 0.09 0"/>
<feBlend mode="normal" in2="effect1_dropShadow_312_1407" result="effect2_dropShadow_312_1407"/>
<feColorMatrix in="SourceAlpha" type="matrix" values="0 0 0 0 0 0 0 0 0 0 0 0 0 0 0 0 0 0 127 0" result="hardAlpha"/>
<feOffset dy="6"/>
<feGaussianBlur stdDeviation="1.8"/>
<feColorMatrix type="matrix" values="0 0 0 0 0 0 0 0 0 0 0 0 0 0 0 0 0 0 0.05 0"/>
<feBlend mode="normal" in2="effect2_dropShadow_312_1407" result="effect3_dropShadow_312_1407"/>
<feColorMatrix in="SourceAlpha" type="matrix" values="0 0 0 0 0 0 0 0 0 0 0 0 0 0 0 0 0 0 127 0" result="hardAlpha"/>
<feOffset dy="10.8"/>
<feGaussianBlur stdDeviation="2.1"/>
<feColorMatrix type="matrix" values="0 0 0 0 0 0 0 0 0 0 0 0 0 0 0 0 0 0 0.01 0"/>
<feBlend mode="normal" in2="effect3_dropShadow_312_1407" result="effect4_dropShadow_312_1407"/>
<feBlend mode="normal" in="SourceGraphic" in2="effect4_dropShadow_312_1407" result="shape"/>
</filter>
<linearGradient id="paint0_linear_312_1407" x1="5" y1="1" x2="29" y2="25" gradientUnits="userSpaceOnUse">
<stop stop-color="#FFDD49"/>
<stop offset="1" stop-color="#FF9623"/>
</linearGradient>
<linearGradient id="paint1_linear_312_1407" x1="11" y1="7" x2="23" y2="19" gradientUnits="userSpaceOnUse">
<stop stop-color="#FFEA8D"/>
<stop offset="1" stop-color="#FF992A"/>
</linearGradient>
</defs>
</svg>
