<svg width="24" height="24" viewBox="0 0 24 24" fill="none" xmlns="http://www.w3.org/2000/svg">
    <rect x="1" y="1" width="22" height="22" rx="11" fill="#B200AA"/>
    <rect x="1" y="1" width="22" height="22" rx="11" stroke="url(#paint0_linear_623_4846)" stroke-width="2"/>
    <mask id="mask0_623_4846" style="mask-type:alpha" maskUnits="userSpaceOnUse" x="6" y="6" width="12" height="12">
        <path d="M14.5 17H9.5C9.295 17 9.125 16.83 9.125 16.625C9.125 16.42 9.295 16.25 9.5 16.25H14.5C14.705 16.25 14.875 16.42 14.875 16.625C14.875 16.83 14.705 17 14.5 17Z"
              fill="#292D32"/>
        <path d="M16.1751 8.76L14.1751 10.19C13.9101 10.38 13.5301 10.265 13.4151 9.96L12.4701 7.44C12.3101 7.005 11.6951 7.005 11.5351 7.44L10.5851 9.955C10.4701 10.265 10.0951 10.38 9.83011 10.185L7.83011 8.755C7.43011 8.475 6.90011 8.87 7.06511 9.335L9.14511 15.16C9.21511 15.36 9.40511 15.49 9.61511 15.49H14.3801C14.5901 15.49 14.7801 15.355 14.8501 15.16L16.9301 9.335C17.1001 8.87 16.5701 8.475 16.1751 8.76ZM13.2501 13.375H10.7501C10.5451 13.375 10.3751 13.205 10.3751 13C10.3751 12.795 10.5451 12.625 10.7501 12.625H13.2501C13.4551 12.625 13.6251 12.795 13.6251 13C13.6251 13.205 13.4551 13.375 13.2501 13.375Z"
              fill="#292D32"/>
    </mask>
    <g mask="url(#mask0_623_4846)">
        <rect x="6" y="6" width="12" height="12" fill="url(#paint1_linear_623_4846)"/>
    </g>
    <defs>
        <linearGradient id="paint0_linear_623_4846" x1="0" y1="0" x2="24" y2="24" gradientUnits="userSpaceOnUse">
            <stop stop-color="#D07EFF"/>
            <stop offset="1" stop-color="#FC2FB7"/>
        </linearGradient>
        <linearGradient id="paint1_linear_623_4846" x1="6" y1="6" x2="18" y2="18" gradientUnits="userSpaceOnUse">
            <stop stop-color="#D07EFF"/>
            <stop offset="1" stop-color="#FC2FB7"/>
        </linearGradient>
    </defs>
</svg>