<svg width="34" height="40" viewBox="0 0 34 40" fill="none" xmlns="http://www.w3.org/2000/svg">
<g filter="url(#filter0_dddd_312_1408)">
<rect x="5" y="1" width="24" height="24" rx="12" fill="#B200AA"/>
<rect x="6" y="2" width="22" height="22" rx="11" stroke="url(#paint0_linear_312_1408)" stroke-width="2"/>
<mask id="mask0_312_1408" style="mask-type:alpha" maskUnits="userSpaceOnUse" x="11" y="7" width="12" height="12">
<path d="M19.5 18H14.5C14.295 18 14.125 17.83 14.125 17.625C14.125 17.42 14.295 17.25 14.5 17.25H19.5C19.705 17.25 19.875 17.42 19.875 17.625C19.875 17.83 19.705 18 19.5 18Z" fill="#292D32"/>
<path d="M21.1751 9.75999L19.1751 11.19C18.9101 11.38 18.5301 11.265 18.4151 10.96L17.4701 8.43999C17.3101 8.00499 16.6951 8.00499 16.5351 8.43999L15.5851 10.955C15.4701 11.265 15.0951 11.38 14.8301 11.185L12.8301 9.75499C12.4301 9.47499 11.9001 9.86999 12.0651 10.335L14.1451 16.16C14.2151 16.36 14.4051 16.49 14.6151 16.49H19.3801C19.5901 16.49 19.7801 16.355 19.8501 16.16L21.9301 10.335C22.1001 9.86999 21.5701 9.47499 21.1751 9.75999ZM18.2501 14.375H15.7501C15.5451 14.375 15.3751 14.205 15.3751 14C15.3751 13.795 15.5451 13.625 15.7501 13.625H18.2501C18.4551 13.625 18.6251 13.795 18.6251 14C18.6251 14.205 18.4551 14.375 18.2501 14.375Z" fill="#292D32"/>
</mask>
<g mask="url(#mask0_312_1408)">
<rect x="11" y="7" width="12" height="12" fill="url(#paint1_linear_312_1408)"/>
</g>
</g>
<defs>
<filter id="filter0_dddd_312_1408" x="0.8" y="0.4" width="32.4" height="39.6" filterUnits="userSpaceOnUse" color-interpolation-filters="sRGB">
<feFlood flood-opacity="0" result="BackgroundImageFix"/>
<feColorMatrix in="SourceAlpha" type="matrix" values="0 0 0 0 0 0 0 0 0 0 0 0 0 0 0 0 0 0 127 0" result="hardAlpha"/>
<feOffset dy="0.6"/>
<feGaussianBlur stdDeviation="0.6"/>
<feColorMatrix type="matrix" values="0 0 0 0 0 0 0 0 0 0 0 0 0 0 0 0 0 0 0.1 0"/>
<feBlend mode="normal" in2="BackgroundImageFix" result="effect1_dropShadow_312_1408"/>
<feColorMatrix in="SourceAlpha" type="matrix" values="0 0 0 0 0 0 0 0 0 0 0 0 0 0 0 0 0 0 127 0" result="hardAlpha"/>
<feOffset dy="2.4"/>
<feGaussianBlur stdDeviation="1.2"/>
<feColorMatrix type="matrix" values="0 0 0 0 0 0 0 0 0 0 0 0 0 0 0 0 0 0 0.09 0"/>
<feBlend mode="normal" in2="effect1_dropShadow_312_1408" result="effect2_dropShadow_312_1408"/>
<feColorMatrix in="SourceAlpha" type="matrix" values="0 0 0 0 0 0 0 0 0 0 0 0 0 0 0 0 0 0 127 0" result="hardAlpha"/>
<feOffset dy="6"/>
<feGaussianBlur stdDeviation="1.8"/>
<feColorMatrix type="matrix" values="0 0 0 0 0 0 0 0 0 0 0 0 0 0 0 0 0 0 0.05 0"/>
<feBlend mode="normal" in2="effect2_dropShadow_312_1408" result="effect3_dropShadow_312_1408"/>
<feColorMatrix in="SourceAlpha" type="matrix" values="0 0 0 0 0 0 0 0 0 0 0 0 0 0 0 0 0 0 127 0" result="hardAlpha"/>
<feOffset dy="10.8"/>
<feGaussianBlur stdDeviation="2.1"/>
<feColorMatrix type="matrix" values="0 0 0 0 0 0 0 0 0 0 0 0 0 0 0 0 0 0 0.01 0"/>
<feBlend mode="normal" in2="effect3_dropShadow_312_1408" result="effect4_dropShadow_312_1408"/>
<feBlend mode="normal" in="SourceGraphic" in2="effect4_dropShadow_312_1408" result="shape"/>
</filter>
<linearGradient id="paint0_linear_312_1408" x1="5" y1="1" x2="29" y2="25" gradientUnits="userSpaceOnUse">
<stop stop-color="#D07EFF"/>
<stop offset="1" stop-color="#FC2FB7"/>
</linearGradient>
<linearGradient id="paint1_linear_312_1408" x1="11" y1="7" x2="23" y2="19" gradientUnits="userSpaceOnUse">
<stop stop-color="#D07EFF"/>
<stop offset="1" stop-color="#FC2FB7"/>
</linearGradient>
</defs>
</svg>
