<svg width="28" height="28" viewBox="0 0 28 28" fill="none" xmlns="http://www.w3.org/2000/svg">
<path d="M3.5 4.66669H4.20737C5.3981 4.66669 6.39781 5.56327 6.52694 6.74698L7.47306 15.4197C7.60219 16.6034 8.6019 17.5 9.79263 17.5H19.887C20.9536 17.5 21.8844 16.7768 22.148 15.7433L23.7579 9.43031C24.1342 7.95499 23.0195 6.52039 21.4969 6.52039H7.7M7.72888 21.7291H8.60388M7.72888 22.6041H8.60388M20.5622 21.7291H21.4372M20.5622 22.6041H21.4372M9.33333 22.1667C9.33333 22.811 8.811 23.3334 8.16667 23.3334C7.52233 23.3334 7 22.811 7 22.1667C7 21.5224 7.52233 21 8.16667 21C8.811 21 9.33333 21.5224 9.33333 22.1667ZM22.1667 22.1667C22.1667 22.811 21.6443 23.3334 21 23.3334C20.3557 23.3334 19.8333 22.811 19.8333 22.1667C19.8333 21.5224 20.3557 21 21 21C21.6443 21 22.1667 21.5224 22.1667 22.1667Z" stroke="white" stroke-width="2.33333" stroke-linecap="round"/>
</svg>
